<svg xmlns="http://www.w3.org/2000/svg" xlink="http://www.w3.org/1999/xlink" contentstyletype="text/css" height="359px" preserveAspectRatio="none" style="width:257px;height:359px;background:#FFFFFF;" version="1.1" viewBox="0 0 257 359" width="257px" zoomAndPan="magnify"><defs></defs><g><text fill="#000000" font-family="sans-serif" font-size="14" font-weight="bold" lengthAdjust="spacing" textLength="56" x="99" y="33.5352">执行流程</text><ellipse cx="197" cy="57.4883" fill="#222222" rx="10" ry="10" style="stroke:#222222;stroke-width:1.0;"></ellipse><rect fill="#F1F1F1" height="34.1328" rx="12.5" ry="12.5" style="stroke:#181818;stroke-width:0.5;" width="72" x="161" y="87.4883"></rect><text fill="#000000" font-family="sans-serif" font-size="12" lengthAdjust="spacing" textLength="48" x="175" y="109.0898">输入命令</text><path d="M10,138.377 L10,178.998 A0,0 0 0 0 10,178.998 L135,178.998 A0,0 0 0 0 135,178.998 L135,162.6875 L155,158.6875 L135,154.6875 L135,148.377 L125,138.377 L10,138.377 A0,0 0 0 0 10,138.377 " fill="#FEFFDD" style="stroke:#181818;stroke-width:0.5;"></path><path d="M125,138.377 L125,148.377 L135,148.377 L125,138.377 " fill="#FEFFDD" style="stroke:#181818;stroke-width:0.5;"></path><text fill="#000000" font-family="sans-serif" font-size="13" lengthAdjust="spacing" textLength="104" x="16" y="155.9453">解析、验证参数，</text><text fill="#000000" font-family="sans-serif" font-size="13" lengthAdjust="spacing" textLength="56" x="16" y="171.2559">提取命令;</text><rect fill="#F1F1F1" height="34.1328" rx="12.5" ry="12.5" style="stroke:#181818;stroke-width:0.5;" width="84" x="155" y="141.6211"></rect><text fill="#000000" font-family="sans-serif" font-size="12" lengthAdjust="spacing" textLength="60" x="169" y="163.2227">解析参数等</text><rect fill="#F1F1F1" height="34.1328" rx="12.5" ry="12.5" style="stroke:#181818;stroke-width:0.5;" width="72" x="161" y="198.998"></rect><text fill="#000000" font-family="sans-serif" font-size="12" lengthAdjust="spacing" textLength="48" x="175" y="220.5996">匹配命令</text><rect fill="#F1F1F1" height="34.1328" rx="12.5" ry="12.5" style="stroke:#181818;stroke-width:0.5;" width="72" x="161" y="274.4063"></rect><text fill="#000000" font-family="sans-serif" font-size="12" lengthAdjust="spacing" textLength="48" x="175" y="296.0078">执行命令</text><ellipse cx="197" cy="338.5391" fill="none" rx="10" ry="10" style="stroke:#222222;stroke-width:1.5;"></ellipse><line style="stroke:#222222;stroke-width:2.5;" x1="190.8128" x2="203.1872" y1="332.3519" y2="344.7262"></line><line style="stroke:#222222;stroke-width:2.5;" x1="203.1872" x2="190.8128" y1="332.3519" y2="344.7262"></line><line style="stroke:#181818;stroke-width:1.0;" x1="197" x2="197" y1="67.4883" y2="87.4883"></line><polygon fill="#181818" points="193,77.4883,197,87.4883,201,77.4883,197,81.4883" style="stroke:#181818;stroke-width:1.0;"></polygon><line style="stroke:#181818;stroke-width:1.0;" x1="197" x2="197" y1="121.6211" y2="141.6211"></line><polygon fill="#181818" points="193,131.6211,197,141.6211,201,131.6211,197,135.6211" style="stroke:#181818;stroke-width:1.0;"></polygon><line style="stroke:#181818;stroke-width:1.0;" x1="197" x2="197" y1="175.7539" y2="198.998"></line><polygon fill="#181818" points="193,188.998,197,198.998,201,188.998,197,192.998" style="stroke:#181818;stroke-width:1.0;"></polygon><line style="stroke:#181818;stroke-width:1.0;" x1="197" x2="197" y1="233.1309" y2="274.4063"></line><polygon fill="#181818" points="193,264.4063,197,274.4063,201,264.4063,197,268.4063" style="stroke:#181818;stroke-width:1.0;"></polygon><text fill="#000000" font-family="sans-serif" font-size="11" lengthAdjust="spacing" textLength="44" x="201" y="254.5859">传入参数</text><line style="stroke:#181818;stroke-width:1.0;" x1="197" x2="197" y1="308.5391" y2="328.5391"></line><polygon fill="#181818" points="193,318.5391,197,328.5391,201,318.5391,197,322.5391" style="stroke:#181818;stroke-width:1.0;"></polygon></g></svg>